<svg xmlns="http://www.w3.org/2000/svg" viewBox="0 0 512 512">
 <rect width="512" height="512" rx="64" fill="#2D1B0E"/>
 <circle cx="256" cy="200" r="80" fill="#8B5E3C"/>
 <circle cx="256" cy="200" r="60" fill="#A67C52"/>
 <circle cx="200" cy="140" r="50" fill="#6B4226"/>
 <circle cx="312" cy="140" r="50" fill="#6B4226"/>
 <circle cx="200" cy="140" r="28" fill="#A67C52"/>
 <circle cx="312" cy="140" r="28" fill="#A67C52"/>
 <circle cx="225" cy="190" r="18" fill="#2D1B0E"/>
 <circle cx="287" cy="190" r="18" fill="#2D1B0E"/>
 <circle cx="218" cy="182" r="6" fill="#FFF"/>
 <circle cx="280" cy="182" r="6" fill="#FFF"/>
 <ellipse cx="256" cy="225" rx="16" ry="10" fill="#2D1B0E"/>
 <path d="M235 248 Q256 268 277 248" stroke="#2D1B0E" stroke-width="6" fill="none" stroke-linecap="round"/>
 <rect x="218" y="290" width="76" height="55" rx="10" fill="#FFC107"/>
 <rect x="228" y="285" width="56" height="12" rx="4" fill="#FF9800"/>
 <circle cx="310" cy="200" r="10" fill="#FF9800" opacity="0.8"/>
 <circle cx="340" cy="180" r="7" fill="#FFC107" opacity="0.6"/>
 <circle cx="350" cy="220" r="12" fill="#FF9800" opacity="0.7"/>
 <circle cx="160" cy="200" r="10" fill="#FF9800" opacity="0.8"/>
 <circle cx="140" cy="170" r="8" fill="#FFC107" opacity="0.6"/>
 <text x="256" y="400" font-size="60" text-anchor="middle" fill="#FFC107" font-family="sans-serif" font-weight="bold">53</text>
 <text x="256" y="450" font-size="30" text-anchor="middle" fill="#FFF8E1" font-family="sans-serif">JUEGOS</text>
</svg>
